<svg width="36" height="36" viewBox="0 0 36 36" fill="none" xmlns="http://www.w3.org/2000/svg">
<rect x="0.5" y="0.5" width="35" height="35" rx="2.5" stroke="#CCCCCC"/>
<path d="M22.9032 8.02333H15.6144V9.51633H18.1799V15.2551C17.7483 15.5117 17.077 15.7449 16.1179 15.7449C15.1589 15.7449 14.4156 15.4883 13.8402 15.1617C13.4086 14.7885 12.9051 14.5319 12.4256 14.4152V14.3219C13.1928 13.9487 14.1279 12.9222 14.1279 11.4759C14.1279 9.53966 12.6893 8 10.2678 8C8.68533 8 7.5105 8.67652 6.86314 9.493L8.13388 10.6128C8.54147 10.0529 9.18883 9.58631 10.2198 9.58631C11.5145 9.58631 12.3057 10.3795 12.3057 11.5925C12.3057 12.9922 11.2987 13.8554 9.81221 13.8554H9.06895V15.4184H10.3637C12.066 15.4184 13.001 16.1882 13.001 17.4946C13.001 18.8009 12.1139 19.874 10.3157 19.874C8.82919 19.874 7.82219 19.1042 7.24676 18.451L6 19.6641C6.76724 20.4339 8.22978 21.437 10.3157 21.437C13.0969 21.437 14.8232 19.6874 14.8232 17.4712C14.8232 17.2613 14.7992 17.0747 14.7753 16.888C15.2788 17.1213 15.8782 17.2613 16.5735 17.2613C17.2688 17.2613 17.7963 17.098 18.1799 16.9347V23H20.0021V9.51633H22.9032V8.02333Z" fill="#333333"/>
<path fill-rule="evenodd" clip-rule="evenodd" d="M26.8717 23.3713L28.72 28H30.7259L24.7398 13H22.9965L17 28H18.9533L20.7807 23.3713H26.8717ZM24.5718 17.1792L26.2941 21.7057H21.4318L23.1751 17.1792C23.4061 16.5048 23.6266 15.7589 23.8367 14.9414L24.5718 17.1792Z" fill="#333333"/>
<path d="M21.5 12L16 26.5" stroke="#F3F3F3" stroke-width="3" stroke-linecap="square"/>
</svg>
