<svg width="30" height="30" viewBox="0 0 30 30" fill="none" xmlns="http://www.w3.org/2000/svg">
<circle cx="15" cy="15" r="15" fill="#D95423"/>
<path fill-rule="evenodd" clip-rule="evenodd" d="M22.2727 11.1818C22.2727 9.42455 20.8482 8 19.0909 8H10.1818C8.42455 8 7 9.42455 7 11.1818V16.2727C7 18.03 8.42455 19.4545 10.1818 19.4545H19.0909C20.8482 19.4545 22.2727 18.03 22.2727 16.2727V11.1818ZM17.8182 21.3636C17.8182 21.0122 17.5333 20.7273 17.1818 20.7273H12.0909C11.7395 20.7273 11.4545 21.0122 11.4545 21.3636C11.4545 21.7151 11.7395 22 12.0909 22H17.1818C17.5333 22 17.8182 21.7151 17.8182 21.3636ZM19.0909 9.27273H10.1818C9.16511 9.27273 8.33403 10.0675 8.27597 11.0696L8.27273 11.1818V16.2727C8.27273 17.2894 9.06749 18.1205 10.0696 18.1786L10.1818 18.1818H19.0909C20.1076 18.1818 20.9387 17.3871 20.9968 16.3849L21 16.2727V11.1818C21 10.1651 20.2052 9.33403 19.2031 9.27597L19.0909 9.27273ZM14.0089 12.4747C13.8604 12.4125 13.7455 12.4978 13.7455 12.6824V15.0905L13.7488 15.1428C13.771 15.3068 13.8999 15.367 14.0544 15.2751L16.0726 14.0709L16.1185 14.0387C16.2408 13.9369 16.2255 13.7935 16.0726 13.7022L14.0544 12.4978L14.0089 12.4747Z" fill="white"/>
</svg>
