<svg width="128" height="39" viewBox="0 0 128 39" fill="none" xmlns="http://www.w3.org/2000/svg">
<path d="M122.857 38.2742H4.72527C2.12637 38.2742 0 36.1691 0 33.5962V5.52805C0 2.95514 2.12637 0.850033 4.72527 0.850033H122.857C125.456 0.850033 127.582 2.95514 127.582 5.52805V33.5962C127.582 36.1691 125.456 38.2742 122.857 38.2742Z" fill="black"/>
<path d="M122.857 0.850033H4.72527C2.12637 0.850033 0 2.95514 0 5.52805V33.5962C0 36.1691 2.12637 38.2742 4.72527 38.2742H122.857C125.456 38.2742 127.582 36.1691 127.582 33.5962V5.52805C127.582 2.95514 125.456 0.850033 122.857 0.850033ZM122.857 1.59851C125.046 1.59851 126.826 3.36156 126.826 5.52805V33.5962C126.826 35.763 125.046 37.5261 122.857 37.5261H4.72527C2.5369 37.5261 0.756043 35.763 0.756043 33.5962V5.52805C0.756043 3.36156 2.5369 1.59851 4.72527 1.59851H122.857Z" fill="#A6A6A6"/>
<path d="M44.8132 10.4342C44.8132 11.2181 44.5787 11.8423 44.1091 12.3079C43.5757 12.8616 42.8805 13.1387 42.0259 13.1387C41.2075 13.1387 40.5116 12.858 39.9394 12.2959C39.3661 11.7341 39.0801 11.0376 39.0801 10.2065C39.0801 9.37502 39.3661 8.67884 39.9394 8.11673C40.5116 7.55499 41.2075 7.27393 42.0259 7.27393C42.432 7.27393 42.8208 7.35252 43.1899 7.50933C43.5591 7.66651 43.8552 7.87515 44.0767 8.13647L43.5783 8.63019C43.2029 8.18615 42.686 7.96432 42.0259 7.96432C41.429 7.96432 40.9129 8.17193 40.4773 8.58743C40.0417 9.0034 39.8239 9.54277 39.8239 10.2065C39.8239 10.8702 40.0417 11.4096 40.4773 11.8256C40.9129 12.2411 41.429 12.4487 42.0259 12.4487C42.6591 12.4487 43.187 12.2399 43.6096 11.8219C43.884 11.5495 44.0426 11.171 44.0851 10.6849H42.0259V10.0106H44.7736C44.8002 10.1572 44.8132 10.2979 44.8132 10.4342Z" fill="white"/>
<path d="M44.8126 10.4332H44.7181C44.7173 11.1992 44.4913 11.7941 44.0417 12.2408L44.0406 12.2415L44.0403 12.2423C43.5238 12.7769 42.86 13.043 42.0253 13.0441C41.2287 13.043 40.562 12.774 40.0053 12.2287C39.4498 11.6823 39.175 11.0153 39.174 10.2055C39.175 9.39523 39.4498 8.72861 40.0053 8.18259C40.562 7.63695 41.2287 7.36759 42.0253 7.36646C42.4192 7.36646 42.7943 7.44253 43.152 7.59419C43.5101 7.74697 43.7929 7.94719 44.0037 8.19578L44.0761 8.13544L44.0093 8.06929L43.5108 8.56338L43.5777 8.62916L43.6504 8.56927C43.2576 8.10325 42.7061 7.86832 42.0253 7.86973C41.4063 7.86898 40.8618 8.08791 40.4114 8.51922C39.9566 8.95194 39.7281 9.52163 39.7288 10.2055C39.7281 10.8893 39.9566 11.459 40.4114 11.8917C40.8618 12.323 41.4063 12.5419 42.0253 12.5412C42.6795 12.5423 43.237 12.3226 43.6759 11.887C43.969 11.596 44.1351 11.193 44.1787 10.6919L44.1875 10.5903H42.1198V10.1031H44.7731V10.0095L44.68 10.026C44.7059 10.1678 44.7181 10.3027 44.7181 10.4332H44.8126H44.9071C44.9071 10.291 44.8937 10.1448 44.8661 9.9928L44.8521 9.91598H41.9308V10.6838V10.7774H44.0845V10.6838L43.9904 10.6758C43.9487 11.1466 43.7973 11.5011 43.5422 11.7547C43.1361 12.1553 42.6378 12.3529 42.0253 12.3541C41.4505 12.3533 40.9629 12.1574 40.5424 11.7573C40.126 11.3585 39.9189 10.8494 39.9178 10.2055C39.9189 9.56148 40.126 9.05242 40.5424 8.65367C40.9629 8.25351 41.4505 8.05759 42.0253 8.05685C42.6644 8.05834 43.1469 8.26736 43.5054 8.6895L43.5718 8.76772L44.1429 8.20158L44.2041 8.14096L44.1484 8.07546C43.9162 7.80143 43.6069 7.5839 43.2266 7.42241C42.8456 7.26046 42.4436 7.17934 42.0253 7.17934C41.1852 7.1786 40.4601 7.47097 39.872 8.04955C39.2817 8.627 38.9842 9.35284 38.985 10.2055C38.9842 11.0577 39.2817 11.7839 39.8724 12.3617C40.4601 12.9399 41.1852 13.2319 42.0253 13.2312C42.9002 13.2319 43.626 12.9443 44.1768 12.3716L44.1085 12.3069L44.1753 12.3731C44.6649 11.8888 44.9077 11.2346 44.9071 10.4332H44.8126Z" fill="white"/>
<path d="M49.1691 8.08993H46.5868V9.86982H48.9155V10.5444H46.5868V12.3243H49.1691V13.0139H45.8588V7.4003H49.1691V8.08993Z" fill="white"/>
<path d="M49.1692 8.08841V7.99485H46.4924V9.96186H48.8211V10.449L46.4924 10.4493V12.4163H49.0747V12.9188H45.9535V7.49234H49.0747V8.08841H49.1692V7.99485V8.08841H49.2637V7.39878V7.30522H45.7645V13.106H49.2637V12.3228V12.2292H46.6815V10.6364H49.0102V9.8683V9.77474H46.6815V8.18197H49.2637V8.08841H49.1692Z" fill="white"/>
<path d="M52.2414 13.0139H51.5122V8.08993H49.9285V7.4003H53.8251V8.08993H52.2414V13.0139Z" fill="white"/>
<path d="M52.2413 13.0124V12.9188H51.6067V7.99485H50.0229V7.49234H53.7305V7.99485H52.1468V13.0124H52.2413V12.9188V13.0124H52.3358V8.18197H53.9195V7.39878V7.30522H49.8339V8.08841V8.18197H51.4176V13.106H52.2413H52.3358V13.0124H52.2413Z" fill="white"/>
<path d="M56.6442 13.0139V7.4003H57.3725V13.0139H56.6442Z" fill="white"/>
<path d="M56.6444 13.0124H56.7389V7.49234H57.2783V12.9188H56.6444V13.0124H56.7389H56.6444V13.106H57.3728H57.4673V7.30522H56.6444H56.5499V13.106H56.6444V13.0124Z" fill="white"/>
<path d="M60.6048 13.0139H59.8757V8.08993H58.292V7.4003H62.1885V8.08993H60.6048V13.0139Z" fill="white"/>
<path d="M60.6046 13.0124V12.9188H59.97V7.99485H58.3864V7.49234H62.0938V7.99485H60.5101V13.0124H60.6046V12.9188V13.0124H60.6991V8.18197H62.2829V7.39878V7.30522H58.1974V8.08841V8.18197H59.781V13.106H60.6046H60.6991V13.0124H60.6046Z" fill="white"/>
<path d="M65.9453 11.8179C66.365 12.2385 66.8785 12.4487 67.4858 12.4487C68.0931 12.4487 68.6069 12.2385 69.026 11.8179C69.446 11.3972 69.6565 10.8595 69.6565 10.2065C69.6565 9.55344 69.446 9.01575 69.026 8.5951C68.6069 8.17445 68.0931 7.96432 67.4858 7.96432C66.8785 7.96432 66.365 8.17445 65.9453 8.5951C65.5262 9.01575 65.3159 9.55344 65.3159 10.2065C65.3159 10.8595 65.5262 11.3972 65.9453 11.8179ZM69.5649 12.2878C69.0074 12.8554 68.3141 13.1387 67.4858 13.1387C66.6566 13.1387 65.9637 12.8554 65.4074 12.2878C64.8496 11.721 64.572 11.027 64.572 10.2065C64.572 9.38597 64.8496 8.69194 65.4074 8.12515C65.9637 7.55752 66.6566 7.27393 67.4858 7.27393C68.3098 7.27393 69.0012 7.55901 69.5612 8.1288C70.1205 8.69858 70.4004 9.39111 70.4004 10.2065C70.4004 11.027 70.1212 11.721 69.5649 12.2878Z" fill="white"/>
<path d="M65.945 11.8168L65.8778 11.8826C66.3131 12.3201 66.8561 12.5423 67.4855 12.5412C68.1145 12.5423 68.6583 12.3201 69.0928 11.8826C69.531 11.4448 69.7514 10.8783 69.7507 10.2055C69.7514 9.53267 69.531 8.96616 69.0928 8.5283C68.6583 8.09081 68.1145 7.8686 67.4855 7.86972C66.8561 7.8686 66.3131 8.09081 65.8778 8.5283C65.4407 8.96616 65.2199 9.53267 65.2211 10.2055C65.2199 10.8783 65.4407 11.4448 65.8778 11.8826L65.945 11.8168L66.0122 11.7511C65.6113 11.3472 65.4108 10.8391 65.4101 10.2055C65.4108 9.57177 65.6113 9.06374 66.0122 8.65984C66.4167 8.25604 66.8999 8.05797 67.4855 8.05684C68.0706 8.05797 68.5549 8.25604 68.9585 8.65984C69.3601 9.06374 69.5606 9.57177 69.5613 10.2055C69.5606 10.8391 69.3601 11.3472 68.9585 11.7511C68.5549 12.1549 68.0706 12.3529 67.4855 12.3541C66.8999 12.3529 66.4167 12.1549 66.0122 11.7511L65.945 11.8168ZM69.5646 12.2868L69.497 12.2218C68.9552 12.7714 68.2925 13.043 67.4855 13.0441C66.6781 13.043 66.0155 12.7714 65.4746 12.2218L65.4721 12.2189L65.4746 12.2218C64.9339 11.6702 64.667 11.0051 64.6662 10.2055C64.667 9.4058 64.9339 8.74068 65.4746 8.18914C66.0155 7.63947 66.6781 7.36759 67.4855 7.36646C68.2873 7.36759 68.9484 7.64059 69.4934 8.19316C70.036 8.74723 70.3044 9.41132 70.3055 10.2055C70.3044 11.0051 70.0368 11.6702 69.497 12.2218L69.5646 12.2868L69.6326 12.3518C70.2055 11.7693 70.4952 11.0468 70.4946 10.2055C70.4952 9.36893 70.2043 8.64786 69.6288 8.06274C69.053 7.47537 68.3316 7.17831 67.4855 7.17934C66.6349 7.17831 65.9114 7.47396 65.3392 8.05909V8.05871C64.7652 8.6416 64.4764 9.36416 64.4772 10.2055C64.4764 11.0468 64.7652 11.7693 65.3392 12.3522L65.3417 12.3548L65.3392 12.3518C65.9114 12.937 66.6349 13.2319 67.4855 13.2312C68.3357 13.2319 69.0592 12.937 69.6326 12.3518L69.5646 12.2868Z" fill="white"/>
<path d="M71.4227 13.0139V7.4003H72.3095L75.0652 11.7673H75.0966L75.0652 10.6855V7.4003H75.7944V13.0139H75.0339L72.1507 8.43526H72.1193L72.1507 9.51747V13.0139H71.4227Z" fill="white"/>
<path d="M71.423 13.0124H71.5175V7.49234H72.2573L75.0131 11.8594H75.0969H75.1939L75.16 10.6826V7.49234H75.7001V12.9188H75.0866L72.2034 8.34018H72.1196H72.0225L72.0565 9.51745V12.9188H71.423V13.0124H71.5175H71.423V13.106H72.151H72.2455V9.51446L72.2141 8.43122L72.1196 8.43374V8.5273H72.151V8.43374L72.0708 8.48351L74.9817 13.106H75.7946H75.8891V7.30522H75.0655H74.971V10.6851L75.0024 11.7683L75.0969 11.7658V11.6722H75.0655V11.7658L75.1457 11.7161L72.3621 7.30522H71.423H71.3285V13.106H71.423V13.0124Z" fill="white"/>
<path d="M101.06 28.9182H102.823V17.2221H101.06V28.9182ZM116.943 21.4353L114.922 26.5061H114.861L112.763 21.4353H110.864L114.01 28.5227L112.216 32.4651H114.056L118.904 21.4353H116.943ZM106.943 27.5898C106.364 27.5898 105.559 27.3039 105.559 26.5964C105.559 25.6937 106.563 25.3476 107.429 25.3476C108.204 25.3476 108.568 25.5131 109.04 25.739C108.903 26.8223 107.961 27.5898 106.943 27.5898ZM107.155 21.1794C105.879 21.1794 104.557 21.7363 104.009 22.9702L105.574 23.6171C105.909 22.9702 106.532 22.7593 107.186 22.7593C108.098 22.7593 109.025 23.3013 109.04 24.2643V24.3846C108.72 24.204 108.037 23.9332 107.201 23.9332C105.514 23.9332 103.796 24.8509 103.796 26.5664C103.796 28.1314 105.179 29.1397 106.729 29.1397C107.915 29.1397 108.568 28.613 108.979 27.9962H109.04V28.8989H110.742V24.4145C110.742 22.3383 109.177 21.1794 107.155 21.1794ZM96.2571 22.8591H93.7489V18.8499H96.2571C97.5754 18.8499 98.3239 19.9305 98.3239 20.8544C98.3239 21.7609 97.5754 22.8591 96.2571 22.8591ZM96.2117 17.2221H91.9864V28.9182H93.7489V24.4869H96.2117C98.1661 24.4869 100.087 23.086 100.087 20.8544C100.087 18.6229 98.1661 17.2221 96.2117 17.2221ZM73.1704 27.5919C71.9521 27.5919 70.9321 26.5821 70.9321 25.1952C70.9321 23.7936 71.9521 22.7685 73.1704 22.7685C74.3731 22.7685 75.317 23.7936 75.317 25.1952C75.317 26.5821 74.3731 27.5919 73.1704 27.5919ZM75.1952 22.0902H75.1343C74.7386 21.623 73.977 21.201 73.0179 21.201C71.0082 21.201 69.1661 22.9494 69.1661 25.1952C69.1661 27.426 71.0082 29.1594 73.0179 29.1594C73.977 29.1594 74.7386 28.7373 75.1343 28.2553H75.1952V28.8279C75.1952 30.3505 74.3731 31.1644 73.0485 31.1644C71.9676 31.1644 71.2976 30.3955 71.0233 29.7475L69.4858 30.3805C69.9273 31.4356 71.0997 32.7319 73.0485 32.7319C75.1191 32.7319 76.8701 31.5258 76.8701 28.5867V21.4422H75.1952V22.0902ZM78.0879 28.9182H79.8541V17.2217H78.0879V28.9182ZM82.4577 25.0596C82.4119 23.522 83.6605 22.7385 84.5586 22.7385C85.2595 22.7385 85.853 23.0849 86.0505 23.5828L82.4577 25.0596ZM87.9387 23.7333C87.6042 22.8437 86.5835 21.201 84.4977 21.201C82.4271 21.201 80.7068 22.8138 80.7068 25.1802C80.7068 27.4111 82.4119 29.1594 84.6956 29.1594C86.5381 29.1594 87.6042 28.044 88.0455 27.396L86.6752 26.4915C86.2187 27.1548 85.594 27.5919 84.6956 27.5919C83.7974 27.5919 83.1581 27.1848 82.7468 26.3862L88.1211 24.1854L87.9387 23.7333ZM45.12 22.422V24.1101H49.2003C49.0785 25.0596 48.7587 25.7529 48.2715 26.2353C47.6779 26.8233 46.7491 27.4713 45.12 27.4713C42.6078 27.4713 40.6439 25.4667 40.6439 22.9797C40.6439 20.4926 42.6078 18.4877 45.12 18.4877C46.4751 18.4877 47.4645 19.0154 48.1954 19.6937L49.3982 18.5031C48.3782 17.5382 47.023 16.7996 45.12 16.7996C41.679 16.7996 38.7863 19.5731 38.7863 22.9797C38.7863 26.3862 41.679 29.1594 45.12 29.1594C46.9776 29.1594 48.3782 28.5568 49.4743 27.426C50.6009 26.3106 50.9513 24.7431 50.9513 23.4771C50.9513 23.0849 50.9209 22.7235 50.8597 22.422H45.12ZM55.5902 27.5919C54.3719 27.5919 53.3213 26.5971 53.3213 25.1802C53.3213 23.7483 54.3719 22.7685 55.5902 22.7685C56.808 22.7685 57.8586 23.7483 57.8586 25.1802C57.8586 26.5971 56.808 27.5919 55.5902 27.5919ZM55.5902 21.201C53.367 21.201 51.5552 22.874 51.5552 25.1802C51.5552 27.4713 53.367 29.1594 55.5902 29.1594C57.8128 29.1594 59.6247 27.4713 59.6247 25.1802C59.6247 22.874 57.8128 21.201 55.5902 21.201ZM64.3916 27.5919C63.1739 27.5919 62.1231 26.5971 62.1231 25.1802C62.1231 23.7483 63.1739 22.7685 64.3916 22.7685C65.6095 22.7685 66.6602 23.7483 66.6602 25.1802C66.6602 26.5971 65.6095 27.5919 64.3916 27.5919ZM64.3916 21.201C62.1686 21.201 60.3571 22.874 60.3571 25.1802C60.3571 27.4713 62.1686 29.1594 64.3916 29.1594C66.6144 29.1594 68.4263 27.4713 68.4263 25.1802C68.4263 22.874 66.6144 21.201 64.3916 21.201Z" fill="white"/>
<path d="M9.93239 31.1533L9.86217 31.0868C9.58716 30.7987 9.4248 30.3514 9.4248 29.7722V29.9085V9.21669C9.4248 9.21482 9.4248 9.21342 9.4248 9.21192C9.4248 9.2137 9.4248 9.21519 9.4248 9.21707V9.35376C9.4248 8.72653 9.6141 8.25405 9.93126 7.97075L21.6403 19.5624L9.93239 31.1533ZM9.4248 9.2108C9.4248 9.15925 9.42622 9.10919 9.42887 9.05989C9.42622 9.10882 9.4248 9.15925 9.4248 9.2108ZM9.42887 9.05764C9.42887 9.05699 9.42887 9.05624 9.42915 9.05549C9.42887 9.05624 9.42887 9.05699 9.42887 9.05764ZM9.42915 9.05109C9.42915 9.05072 9.42915 9.05034 9.42915 9.04997C9.42915 9.05034 9.42915 9.05072 9.42915 9.05109Z" fill="url(#paint0_linear)"/>
<path d="M25.5424 23.5654L25.6314 23.5154L30.2555 20.9143C30.6964 20.6662 30.9902 20.3654 31.1368 20.0471C30.9906 20.3654 30.6967 20.6666 30.2555 20.9147L25.6314 23.5157L25.5424 23.5654ZM25.5436 23.4284L21.64 19.5632L25.5432 15.6987L30.2555 18.3491C30.8539 18.6857 31.1899 19.1195 31.246 19.5628C31.246 19.5632 31.246 19.5639 31.246 19.5646C31.1899 20.0069 30.8539 20.4411 30.2555 20.7776L25.5436 23.4284Z" fill="url(#paint1_linear)"/>
<path d="M10.7667 31.5964C10.4396 31.5964 10.1542 31.4912 9.93168 31.2924L9.93206 31.292C10.1546 31.4908 10.4404 31.5964 10.7675 31.5964C10.7958 31.5964 10.8247 31.5957 10.8539 31.5943C10.8243 31.5957 10.7951 31.5964 10.7667 31.5964ZM10.7671 31.4594C10.44 31.4597 10.1546 31.3541 9.93206 31.1553V31.155L21.64 19.5641L25.5435 23.4293L11.8259 31.1455C11.4463 31.3585 11.0867 31.4594 10.7671 31.4594ZM9.92875 31.2898C9.90806 31.2712 9.88774 31.2515 9.8678 31.231L9.92875 31.2898Z" fill="url(#paint2_linear)"/>
<path d="M21.6398 19.5635L9.93079 7.97182C10.1533 7.77338 10.4384 7.66812 10.7651 7.66812C11.0855 7.66812 11.4454 7.76935 11.8257 7.98276L25.543 15.699L21.6398 19.5635ZM25.6313 15.6117L11.8257 7.84616C11.4454 7.63266 11.0855 7.53143 10.7651 7.53143C10.7636 7.53143 10.7625 7.53143 10.761 7.53143C10.7629 7.53143 10.7643 7.53143 10.7666 7.53143C11.0863 7.53143 11.4458 7.63229 11.8257 7.84579L25.6313 15.6117Z" fill="url(#paint3_linear)"/>
<path d="M10.8542 31.5938C11.1513 31.5769 11.4803 31.4757 11.8262 31.2816L25.5427 23.5658L11.8262 31.2816C11.4806 31.4761 11.1513 31.5769 10.8542 31.5938ZM9.93202 31.2918L9.92909 31.2893C9.93013 31.2901 9.93127 31.2911 9.93202 31.2918ZM9.86814 31.2305L9.86218 31.2247V31.2243C9.86445 31.2264 9.86625 31.2286 9.86814 31.2305Z" fill="black"/>
<path d="M25.5427 23.5654L25.6342 23.5134L25.5427 23.5654Z" fill="url(#paint4_linear)"/>
<path d="M10.7678 31.5964C10.4407 31.5964 10.155 31.4908 9.9324 31.292L9.93202 31.2924C9.93127 31.2916 9.93013 31.2906 9.92909 31.2898L9.86814 31.231C9.86625 31.2291 9.86445 31.227 9.86218 31.2248L9.9324 31.1553C10.155 31.3541 10.4404 31.4597 10.7675 31.4594C11.0871 31.4594 11.4467 31.3585 11.8262 31.1455L25.5438 23.4293L25.6317 23.5163L25.5427 23.5663L11.8262 31.2822C11.4803 31.4762 11.1513 31.5774 10.8542 31.5943C10.825 31.5957 10.7962 31.5964 10.7678 31.5964Z" fill="url(#paint5_linear)"/>
<path d="M9.86288 31.2234C9.58743 30.9353 9.4248 30.488 9.4248 29.9088V29.9084C9.4248 30.488 9.58743 30.9349 9.86288 31.223V31.2234Z" fill="black"/>
<path d="M9.86288 31.2234C9.58743 30.9353 9.4248 30.4884 9.4248 29.9088V29.7725C9.4248 30.3517 9.58743 30.799 9.86288 31.0871L9.93321 31.1536L9.86288 31.2234Z" fill="url(#paint6_linear)"/>
<path d="M9.86218 31.2234L9.93437 31.1509V31.1512L9.86218 31.2234Z" fill="url(#paint7_linear)"/>
<path d="M31.1368 20.0466C31.2096 19.8887 31.2462 19.7265 31.2462 19.5641C31.2462 19.5639 31.2462 19.5635 31.2462 19.5635C31.2462 19.7261 31.2096 19.8883 31.1368 20.0466Z" fill="black"/>
<path d="M25.6318 23.5161L25.5439 23.4291L30.2559 20.7784C30.8543 20.4418 31.1903 20.0076 31.2464 19.5653C31.2464 19.7277 31.2098 19.8899 31.1372 20.0478C30.9906 20.3661 30.6968 20.6669 30.2559 20.915L25.6318 23.5161Z" fill="url(#paint8_linear)"/>
<path d="M31.2464 19.5635V19.5631C31.246 19.0737 30.9156 18.5844 30.2558 18.213L25.6318 15.612H25.6314L25.6318 15.6117L30.2558 18.2127C30.9163 18.584 31.2471 19.0741 31.2464 19.5635Z" fill="#404040"/>
<path d="M31.2465 19.5632C31.1903 19.1199 30.8544 18.6861 30.256 18.3495L25.5436 15.6991L25.6315 15.6121H25.6319L30.256 18.2132C30.9157 18.5845 31.2461 19.0738 31.2465 19.5632Z" fill="url(#paint9_linear)"/>
<path d="M9.4248 9.21362C9.4248 9.21325 9.4248 9.21288 9.4248 9.2125C9.4248 9.21288 9.4248 9.21325 9.4248 9.21362ZM9.42887 9.06159C9.42887 9.06084 9.42887 9.06009 9.42887 9.05934C9.42887 9.06009 9.42887 9.06084 9.42887 9.06159ZM9.42915 9.05719C9.42915 9.05569 9.42915 9.05429 9.42915 9.05279C9.42915 9.05429 9.42915 9.05569 9.42915 9.05719ZM9.42915 9.05167C9.48387 8.09053 10.0118 7.53534 10.7586 7.53206C10.4348 7.53394 10.1528 7.63919 9.93201 7.83614V7.83576L9.92937 7.83838C9.90612 7.85915 9.88401 7.88114 9.86217 7.90378C9.6141 8.1636 9.4576 8.55281 9.42915 9.05167Z" fill="#404040"/>
<path d="M9.4248 9.35376V9.21707C9.4248 9.2152 9.4248 9.2137 9.4248 9.21192C9.4248 9.21155 9.4248 9.21118 9.4248 9.2108C9.4248 9.15925 9.42622 9.10882 9.42887 9.05989C9.42887 9.05914 9.42887 9.05839 9.42887 9.05764C9.42887 9.05699 9.42887 9.05624 9.42916 9.05549C9.42916 9.05399 9.42916 9.05259 9.42916 9.05109C9.42916 9.05072 9.42916 9.05035 9.42916 9.04997C9.45765 8.55111 9.6144 8.1619 9.86288 7.90208L9.93208 7.97075C9.6144 8.25405 9.4248 8.72653 9.4248 9.35376ZM9.93018 7.83668L9.93283 7.83406C9.93208 7.83518 9.93094 7.83593 9.93018 7.83668Z" fill="url(#paint10_linear)"/>
<path d="M25.5435 15.6982L11.8262 7.98204C11.4459 7.76863 11.086 7.6674 10.7656 7.6674C10.4389 7.6674 10.1538 7.77265 9.93127 7.97109L9.86218 7.90242C9.88401 7.87978 9.90613 7.85779 9.92938 7.83702C9.93013 7.83627 9.93127 7.83552 9.93202 7.83478C10.1528 7.63783 10.4348 7.53258 10.7586 7.5307C10.7593 7.5307 10.7604 7.5307 10.7615 7.5307C10.763 7.5307 10.764 7.5307 10.7656 7.5307C11.086 7.5307 11.4459 7.63194 11.8262 7.84544L25.6317 15.6109L25.6314 15.6112L25.5435 15.6982Z" fill="url(#paint11_linear)"/>
<defs>
<linearGradient id="paint0_linear" x1="20.6021" y1="8.99842" x2="4.90108" y2="24.858" gradientUnits="userSpaceOnUse">
<stop stop-color="#00A0FF"/>
<stop offset="0.00657445" stop-color="#00A1FF"/>
<stop offset="0.2601" stop-color="#00BEFF"/>
<stop offset="0.5122" stop-color="#00D2FF"/>
<stop offset="0.7604" stop-color="#00DFFF"/>
<stop offset="1" stop-color="#00E3FF"/>
</linearGradient>
<linearGradient id="paint1_linear" x1="31.9751" y1="19.5638" x2="9.10765" y2="19.5638" gradientUnits="userSpaceOnUse">
<stop stop-color="#FFE000"/>
<stop offset="0.4087" stop-color="#FFBD00"/>
<stop offset="0.7754" stop-color="#FFA500"/>
<stop offset="1" stop-color="#FF9C00"/>
</linearGradient>
<linearGradient id="paint2_linear" x1="23.4626" y1="21.7116" x2="2.17093" y2="43.2183" gradientUnits="userSpaceOnUse">
<stop stop-color="#FF3A44"/>
<stop offset="1" stop-color="#C31162"/>
</linearGradient>
<linearGradient id="paint3_linear" x1="6.89593" y1="1.01551" x2="16.4035" y2="10.6191" gradientUnits="userSpaceOnUse">
<stop stop-color="#32A071"/>
<stop offset="0.0685" stop-color="#2DA771"/>
<stop offset="0.4762" stop-color="#15CF74"/>
<stop offset="0.8009" stop-color="#06E775"/>
<stop offset="1" stop-color="#00F076"/>
</linearGradient>
<linearGradient id="paint4_linear" x1="32.1558" y1="19.4098" x2="8.64681" y2="19.4098" gradientUnits="userSpaceOnUse">
<stop stop-color="#CCB300"/>
<stop offset="0.4087" stop-color="#CC9700"/>
<stop offset="0.7754" stop-color="#CC8400"/>
<stop offset="1" stop-color="#CC7D00"/>
</linearGradient>
<linearGradient id="paint5_linear" x1="23.4629" y1="21.7116" x2="2.17127" y2="43.2183" gradientUnits="userSpaceOnUse">
<stop stop-color="#CC2E36"/>
<stop offset="1" stop-color="#9C0E4E"/>
</linearGradient>
<linearGradient id="paint6_linear" x1="20.6201" y1="8.99868" x2="4.91939" y2="24.8836" gradientUnits="userSpaceOnUse">
<stop stop-color="#008DE0"/>
<stop offset="0.00657445" stop-color="#008DE0"/>
<stop offset="0.2601" stop-color="#00A7E0"/>
<stop offset="0.5122" stop-color="#00B8E0"/>
<stop offset="0.7604" stop-color="#00C4E0"/>
<stop offset="1" stop-color="#00C7E0"/>
</linearGradient>
<linearGradient id="paint7_linear" x1="23.8449" y1="21.3443" x2="1.7333" y2="43.4562" gradientUnits="userSpaceOnUse">
<stop stop-color="#E0333C"/>
<stop offset="1" stop-color="#AB0F56"/>
</linearGradient>
<linearGradient id="paint8_linear" x1="31.9755" y1="19.5645" x2="9.10804" y2="19.5645" gradientUnits="userSpaceOnUse">
<stop stop-color="#E0C500"/>
<stop offset="0.4087" stop-color="#E0A600"/>
<stop offset="0.7754" stop-color="#E09100"/>
<stop offset="1" stop-color="#E08900"/>
</linearGradient>
<linearGradient id="paint9_linear" x1="31.9756" y1="19.5642" x2="9.10811" y2="19.5642" gradientUnits="userSpaceOnUse">
<stop stop-color="#FFE840"/>
<stop offset="0.4087" stop-color="#FFCE40"/>
<stop offset="0.7754" stop-color="#FFBC40"/>
<stop offset="1" stop-color="#FFB540"/>
</linearGradient>
<linearGradient id="paint10_linear" x1="20.6201" y1="8.99842" x2="4.91938" y2="24.8833" gradientUnits="userSpaceOnUse">
<stop stop-color="#40B8FF"/>
<stop offset="0.00657445" stop-color="#40B9FF"/>
<stop offset="0.2601" stop-color="#40CEFF"/>
<stop offset="0.5122" stop-color="#40DDFF"/>
<stop offset="0.7604" stop-color="#40E7FF"/>
<stop offset="1" stop-color="#40EAFF"/>
</linearGradient>
<linearGradient id="paint11_linear" x1="6.89641" y1="1.01479" x2="16.404" y2="10.6184" gradientUnits="userSpaceOnUse">
<stop stop-color="#65B895"/>
<stop offset="0.0685" stop-color="#62BD95"/>
<stop offset="0.4762" stop-color="#50DB97"/>
<stop offset="0.8009" stop-color="#44ED98"/>
<stop offset="1" stop-color="#40F498"/>
</linearGradient>
</defs>
</svg>
