<svg width="128" height="38" viewBox="0 0 128 38" fill="none" xmlns="http://www.w3.org/2000/svg">
<path d="M117.84 0.000121628H10.5833C10.1924 0.000121628 9.80608 0.000121628 9.41615 0.00199283C9.08974 0.00386403 8.76593 0.00929987 8.43639 0.013875C7.72047 0.0212679 7.00624 0.076538 6.29989 0.179205C5.59454 0.284107 4.91128 0.481877 4.27323 0.765826C3.63596 1.05218 3.05367 1.42426 2.54747 1.86858C2.03863 2.31165 1.61446 2.82378 1.29129 3.38527C0.967229 3.94565 0.742523 4.54615 0.624935 5.16602C0.506228 5.78511 0.442351 6.41134 0.433877 7.03909C0.423983 7.32595 0.422938 7.61376 0.417725 7.90065V29.5264C0.422938 29.8169 0.423983 30.0983 0.433877 30.3889C0.442354 31.0166 0.506231 31.6428 0.624935 32.2619C0.742199 32.8821 0.966918 33.4829 1.29129 34.0435C1.61431 34.6032 2.03854 35.1133 2.54747 35.5539C3.05175 36.0002 3.63442 36.3725 4.27323 36.6567C4.91128 36.9414 5.59446 37.1403 6.29989 37.2468C7.00636 37.3487 7.72052 37.404 8.43639 37.4123C8.76593 37.4186 9.08974 37.4223 9.41615 37.4223C9.80607 37.4241 10.1924 37.4241 10.5833 37.4241H117.84C118.223 37.4241 118.613 37.4241 118.996 37.4223C119.321 37.4223 119.654 37.4186 119.979 37.4123C120.693 37.4044 121.406 37.3491 122.111 37.2468C122.819 37.1396 123.504 36.9407 124.146 36.6567C124.784 36.3723 125.366 36 125.87 35.5539C126.377 35.1115 126.803 34.6019 127.13 34.0435C127.452 33.4825 127.674 32.8817 127.79 32.2619C127.909 31.6427 127.975 31.0167 127.988 30.3889C127.992 30.0983 127.992 29.8169 127.992 29.5264C128 29.1865 128 28.8484 128 28.503V8.92213C128 8.5795 128 8.23962 127.992 7.90065C127.992 7.61376 127.992 7.32595 127.988 7.03906C127.975 6.41125 127.909 5.78516 127.79 5.16598C127.674 4.54647 127.451 3.94602 127.13 3.38524C126.471 2.25978 125.428 1.34367 124.146 0.765742C123.504 0.482487 122.819 0.284769 122.111 0.179121C121.406 0.0760014 120.693 0.0207121 119.979 0.013744C119.654 0.00917824 119.321 0.00369562 118.996 0.0018712C118.613 0 118.223 0 117.84 0V0.000121628Z" fill="#A6A6A6"/>
<path d="M9.42133 36.6051C9.09649 36.6051 8.7795 36.6014 8.4572 36.5951C7.78955 36.5874 7.12345 36.5364 6.46438 36.4425C5.84983 36.3496 5.2545 36.1768 4.69801 35.9298C4.14664 35.6849 3.64373 35.3638 3.20857 34.9787C2.76712 34.5982 2.39958 34.1568 2.12054 33.6721C1.83842 33.1843 1.64317 32.6614 1.54161 32.1217C1.43192 31.5417 1.37258 30.9553 1.36409 30.3674C1.35733 30.1701 1.34848 29.5131 1.34848 29.5131V7.90024C1.34848 7.90024 1.35791 7.25335 1.36414 7.0633C1.37227 6.47639 1.43127 5.89086 1.54063 5.31179C1.64238 4.77057 1.83777 4.24616 2.12005 3.75673C2.39807 3.27239 2.76356 2.8307 3.20236 2.44881C3.64066 2.06329 4.14518 1.74049 4.69749 1.49219C5.25269 1.24602 5.8469 1.07446 6.46021 0.983278C7.12145 0.888376 7.78986 0.837068 8.45983 0.829783L9.42185 0.818359H118.991L119.964 0.830242C120.628 0.837164 121.29 0.888015 121.946 0.982361C122.565 1.07469 123.165 1.24744 123.727 1.49493C124.833 1.99533 125.734 2.78701 126.302 3.75902C126.58 4.24507 126.772 4.7652 126.872 5.30175C126.983 5.88556 127.045 6.47569 127.058 7.06742C127.061 7.33238 127.061 7.61699 127.061 7.90024C127.069 8.25109 127.069 8.58503 127.069 8.92171V28.5026C127.069 28.8425 127.069 29.1742 127.061 29.5085C127.061 29.8128 127.061 30.0915 127.057 30.3784C127.044 30.9595 126.983 31.5391 126.874 32.1125C126.775 32.6561 126.581 33.1831 126.299 33.675C126.018 34.1544 125.652 34.5919 125.216 34.9714C124.78 35.3586 124.277 35.6816 123.724 35.9281C123.164 36.1769 122.564 36.3503 121.946 36.4425C121.287 36.5369 120.62 36.5879 119.953 36.5951C119.64 36.6014 119.313 36.6051 118.996 36.6051L117.84 36.6069L9.42133 36.6051Z" fill="black"/>
<path d="M43.3203 7.60448C43.6901 7.57832 44.0613 7.63339 44.4069 7.76571C44.7525 7.89804 45.064 8.10432 45.319 8.36968C45.5739 8.63504 45.766 8.95286 45.8812 9.30022C45.9964 9.64759 46.032 10.0158 45.9854 10.3784C45.9854 12.1619 45.0074 13.1871 43.3203 13.1871H41.2744V7.60448H43.3203ZM42.1541 12.3976H43.222C43.4863 12.4131 43.7508 12.3704 43.9962 12.2725C44.2416 12.1747 44.4618 12.0241 44.6407 11.8318C44.8196 11.6394 44.9528 11.4102 45.0305 11.1608C45.1082 10.9113 45.1285 10.6479 45.0899 10.3898C45.1257 10.1326 45.1034 9.87087 45.0245 9.62325C44.9456 9.37563 44.8121 9.14828 44.6336 8.95748C44.455 8.76669 44.2359 8.61717 43.9919 8.51965C43.7479 8.42212 43.485 8.37901 43.222 8.39339H42.1541V12.3976Z" fill="white"/>
<path d="M46.9791 11.0721C46.9523 10.7953 46.9844 10.5159 47.0735 10.252C47.1626 9.98814 47.3066 9.7455 47.4964 9.53968C47.6862 9.33387 47.9175 9.16942 48.1756 9.05689C48.4336 8.94436 48.7127 8.88623 48.9949 8.88623C49.2771 8.88623 49.5561 8.94436 49.8142 9.05689C50.0722 9.16942 50.3036 9.33387 50.4934 9.53968C50.6831 9.7455 50.8272 9.98814 50.9163 10.252C51.0054 10.5159 51.0375 10.7953 51.0106 11.0721C51.038 11.3493 51.0062 11.629 50.9174 11.8934C50.8286 12.1577 50.6846 12.4008 50.4948 12.607C50.3049 12.8132 50.0734 12.978 49.8151 13.0908C49.5568 13.2035 49.2774 13.2618 48.9949 13.2618C48.7124 13.2618 48.433 13.2035 48.1747 13.0908C47.9164 12.978 47.6848 12.8132 47.495 12.607C47.3052 12.4008 47.1612 12.1577 47.0723 11.8934C46.9835 11.629 46.9518 11.3493 46.9791 11.0721ZM50.1429 11.0721C50.1429 10.1589 49.7267 9.6249 48.9963 9.6249C48.263 9.6249 47.8505 10.1589 47.8505 11.0722C47.8505 11.9927 48.263 12.5226 48.9963 12.5226C49.7267 12.5226 50.143 11.989 50.143 11.0721H50.1429Z" fill="white"/>
<path d="M56.3696 13.1788H55.4946L54.6111 10.0759H54.5444L53.6647 13.1788H52.798L51.6198 8.96582H52.4754L53.2411 12.1805H53.3041L54.1829 8.96582H54.9921L55.8709 12.1805H55.9377L56.6996 8.96582H57.5432L56.3696 13.1788Z" fill="white"/>
<path d="M58.5342 8.96682H59.3463V9.63608H59.4093C59.5162 9.39571 59.6966 9.1942 59.9252 9.05966C60.1539 8.92511 60.4194 8.86423 60.6848 8.88549C60.8928 8.87008 61.1016 8.90099 61.2958 8.97593C61.4901 9.05087 61.6647 9.16791 61.8068 9.3184C61.9488 9.46889 62.0548 9.64895 62.1166 9.84526C62.1785 10.0416 62.1948 10.2491 62.1643 10.4524V13.1797H61.3207V10.6612C61.3207 9.9842 61.0223 9.6475 60.3984 9.6475C60.2572 9.64102 60.1162 9.66471 59.9852 9.71694C59.8541 9.76918 59.7361 9.84873 59.6391 9.95013C59.5422 10.0515 59.4687 10.1724 59.4235 10.3044C59.3784 10.4365 59.3628 10.5766 59.3778 10.7151V13.1798H58.5342L58.5342 8.96682Z" fill="white"/>
<path d="M63.5083 7.32227H64.3519V13.1798H63.5083V7.32227Z" fill="white"/>
<path d="M65.524 11.072C65.4972 10.7951 65.5293 10.5157 65.6184 10.2518C65.7075 9.98792 65.8516 9.74527 66.0414 9.53945C66.2312 9.33363 66.4626 9.16918 66.7207 9.05665C66.9787 8.94412 67.2578 8.88599 67.54 8.88599C67.8222 8.88599 68.1013 8.94412 68.3594 9.05665C68.6174 9.16918 68.8488 9.33363 69.0386 9.53945C69.2284 9.74527 69.3725 9.98792 69.4616 10.2518C69.5507 10.5157 69.5828 10.7951 69.556 11.072C69.5833 11.3491 69.5515 11.6289 69.4627 11.8932C69.3738 12.1575 69.2298 12.4006 69.04 12.6068C68.8501 12.813 68.6186 12.9778 68.3602 13.0906C68.1019 13.2034 67.8225 13.2616 67.54 13.2616C67.2575 13.2616 66.9781 13.2034 66.7198 13.0906C66.4614 12.9778 66.2299 12.813 66.0401 12.6068C65.8502 12.4006 65.7062 12.1575 65.6173 11.8932C65.5285 11.6289 65.4967 11.3491 65.524 11.072ZM68.6878 11.072C68.6878 10.1588 68.2716 9.62473 67.5412 9.62473C66.8079 9.62473 66.3954 10.1588 66.3954 11.072C66.3954 11.9925 66.8079 12.5224 67.5412 12.5224C68.2716 12.5224 68.6878 11.9888 68.6878 11.072H68.6878Z" fill="white"/>
<path d="M70.4443 11.9888C70.4443 11.2305 71.0172 10.7933 72.0341 10.7311L73.1919 10.6654V10.3017C73.1919 9.85676 72.8934 9.6055 72.3169 9.6055C71.8459 9.6055 71.5196 9.7759 71.426 10.0738H70.6093C70.6955 9.35013 71.3862 8.88599 72.3558 8.88599C73.4274 8.88599 74.0318 9.41179 74.0318 10.3017V13.1802H73.2197V12.5882H73.153C73.0175 12.8006 72.8273 12.9737 72.6017 13.0899C72.3762 13.2061 72.1234 13.2612 71.8691 13.2497C71.6897 13.2681 71.5083 13.2492 71.3367 13.1943C71.1652 13.1393 71.0071 13.0496 70.8729 12.9308C70.7387 12.812 70.6312 12.6668 70.5574 12.5046C70.4835 12.3423 70.445 12.1666 70.4443 11.9888ZM73.1919 11.6288V11.2766L72.1481 11.3424C71.5595 11.3812 71.2925 11.5786 71.2925 11.95C71.2925 12.3291 71.6262 12.5498 72.0851 12.5498C72.2196 12.5632 72.3554 12.5498 72.4845 12.5105C72.6136 12.4711 72.7334 12.4065 72.8366 12.3206C72.9399 12.2346 73.0246 12.1291 73.0856 12.0103C73.1466 11.8914 73.1828 11.7617 73.1919 11.6288Z" fill="white"/>
<path d="M75.1405 11.0715C75.1405 9.74031 75.8348 8.89699 76.9148 8.89699C77.1819 8.88486 77.447 8.94792 77.6791 9.07881C77.9112 9.20969 78.1007 9.40299 78.2255 9.63612H78.2886V7.32227H79.1321V13.1798H78.3238V12.5142H78.257C78.1226 12.7458 77.9265 12.9366 77.6899 13.0662C77.4533 13.1958 77.1852 13.2591 76.9148 13.2492C75.8274 13.2493 75.1405 12.406 75.1405 11.0715ZM76.0119 11.0715C76.0119 11.9651 76.4392 12.5028 77.154 12.5028C77.8649 12.5028 78.3043 11.9573 78.3043 11.0752C78.3043 10.1971 77.8603 9.64392 77.154 9.64392C76.4439 9.64392 76.0119 10.1853 76.0119 11.0715H76.0119Z" fill="white"/>
<path d="M82.6223 11.0721C82.5954 10.7953 82.6275 10.5159 82.7166 10.252C82.8057 9.98814 82.9497 9.7455 83.1395 9.53968C83.3293 9.33387 83.5607 9.16942 83.8187 9.05689C84.0768 8.94436 84.3558 8.88623 84.638 8.88623C84.9202 8.88623 85.1992 8.94436 85.4573 9.05689C85.7153 9.16942 85.9467 9.33387 86.1365 9.53968C86.3263 9.7455 86.4703 9.98814 86.5594 10.252C86.6485 10.5159 86.6806 10.7953 86.6537 11.0721C86.6811 11.3493 86.6494 11.629 86.5605 11.8934C86.4717 12.1577 86.3277 12.4008 86.1379 12.607C85.948 12.8132 85.7165 12.978 85.4582 13.0908C85.1999 13.2035 84.9205 13.2618 84.638 13.2618C84.3555 13.2618 84.0761 13.2035 83.8178 13.0908C83.5595 12.978 83.328 12.8132 83.1381 12.607C82.9483 12.4008 82.8043 12.1577 82.7155 11.8934C82.6266 11.629 82.5949 11.3493 82.6223 11.0721ZM85.7861 11.0721C85.7861 10.1589 85.3699 9.6249 84.6394 9.6249C83.9061 9.6249 83.4937 10.1589 83.4937 11.0722C83.4937 11.9927 83.9062 12.5226 84.6394 12.5226C85.3699 12.5226 85.7861 11.989 85.7861 11.0721Z" fill="white"/>
<path d="M87.7855 8.96682H88.5976V9.63608H88.6606C88.7675 9.39571 88.9479 9.1942 89.1765 9.05966C89.4052 8.92511 89.6707 8.86423 89.9361 8.88549C90.1441 8.87008 90.353 8.90099 90.5472 8.97593C90.7414 9.05087 90.916 9.16791 91.0581 9.3184C91.2002 9.46889 91.3061 9.64895 91.368 9.84526C91.4299 10.0416 91.4461 10.2491 91.4156 10.4524V13.1797H90.5721V10.6612C90.5721 9.9842 90.2736 9.6475 89.6497 9.6475C89.5085 9.64102 89.3675 9.66471 89.2365 9.71694C89.1054 9.76918 88.9874 9.84873 88.8905 9.95013C88.7935 10.0515 88.72 10.1724 88.6749 10.3044C88.6297 10.4365 88.6141 10.5766 88.6291 10.7151V13.1798H87.7855V8.96682Z" fill="white"/>
<path d="M96.1823 7.91846V8.98654H97.1084V9.68687H96.1823V11.8532C96.1823 12.2945 96.3668 12.4877 96.7867 12.4877C96.8942 12.4874 97.0016 12.481 97.1084 12.4685V13.1611C96.9569 13.1878 96.8034 13.202 96.6495 13.2036C95.7114 13.2036 95.3378 12.8783 95.3378 12.0661V9.68684H94.6592V8.9865H95.3378V7.91846H96.1823Z" fill="white"/>
<path d="M98.2606 7.32227H99.0967V9.64391H99.1635C99.2756 9.40129 99.4609 9.19865 99.6941 9.0636C99.9274 8.92855 100.197 8.86765 100.467 8.88922C100.674 8.87812 100.88 8.91217 101.072 8.98893C101.265 9.06569 101.437 9.18326 101.578 9.33328C101.718 9.48329 101.823 9.66204 101.886 9.85677C101.948 10.0515 101.966 10.2574 101.939 10.4598V13.1798H101.094V10.6649C101.094 9.99201 100.776 9.65121 100.18 9.65121C100.035 9.63949 99.8896 9.65914 99.7531 9.70877C99.6166 9.75841 99.4928 9.83684 99.3903 9.93857C99.2878 10.0403 99.2091 10.1629 99.1596 10.2977C99.1102 10.4326 99.0913 10.5765 99.1042 10.7193V13.1798H98.2606L98.2606 7.32227Z" fill="white"/>
<path d="M106.858 12.0428C106.743 12.4278 106.495 12.7609 106.156 12.9837C105.817 13.2065 105.41 13.3049 105.005 13.2616C104.724 13.269 104.444 13.2158 104.185 13.1058C103.927 12.9959 103.695 12.8317 103.507 12.6249C103.32 12.418 103.18 12.1732 103.097 11.9077C103.015 11.6422 102.992 11.3621 103.031 11.0871C102.993 10.8112 103.017 10.5306 103.099 10.2642C103.181 9.9979 103.32 9.75206 103.507 9.54335C103.694 9.33464 103.924 9.16795 104.182 9.05454C104.44 8.94114 104.719 8.88368 105.002 8.88606C106.191 8.88606 106.909 9.68693 106.909 11.0099V11.3H103.89V11.3466C103.877 11.5012 103.897 11.6568 103.948 11.8035C104 11.9501 104.081 12.0846 104.189 12.1982C104.296 12.3118 104.426 12.4021 104.571 12.4633C104.715 12.5245 104.871 12.5552 105.029 12.5535C105.23 12.5774 105.435 12.5416 105.616 12.4506C105.797 12.3597 105.946 12.2177 106.045 12.0428L106.858 12.0428ZM103.89 10.6851H106.049C106.06 10.5437 106.04 10.4017 105.992 10.2681C105.944 10.1346 105.867 10.0125 105.768 9.90974C105.669 9.80696 105.549 9.72575 105.417 9.67132C105.284 9.61689 105.141 9.59045 104.997 9.5937C104.851 9.59189 104.706 9.61889 104.571 9.6731C104.436 9.72732 104.313 9.80765 104.21 9.90936C104.107 10.0111 104.026 10.1321 103.971 10.2653C103.916 10.3986 103.888 10.5413 103.89 10.6851H103.89Z" fill="white"/>
<path d="M47.569 24.8254H43.0758L41.9968 27.9657H40.0937L44.3495 16.3474H46.3268L50.5826 27.9657H48.647L47.569 24.8254ZM43.5412 23.3763H47.1027L45.347 18.2798H45.2979L43.5412 23.3763Z" fill="white"/>
<path d="M59.7735 23.7256C59.7735 26.3579 58.3441 28.0491 56.187 28.0491C55.6406 28.0773 55.0972 27.9532 54.6189 27.6911C54.1407 27.4291 53.7471 27.0395 53.483 26.5671H53.4422V30.7627H51.6781V19.4898H53.3857V20.8987H53.4181C53.6943 20.4286 54.0946 20.0411 54.5765 19.7774C55.0583 19.5137 55.6037 19.3837 56.1546 19.4012C58.3357 19.4012 59.7735 21.1007 59.7735 23.7256ZM57.9603 23.7256C57.9603 22.0107 57.0612 20.8832 55.6892 20.8832C54.3414 20.8832 53.4348 22.0344 53.4348 23.7256C53.4348 25.4324 54.3414 26.5754 55.6892 26.5754C57.0612 26.5754 57.9603 25.4561 57.9603 23.7256Z" fill="white"/>
<path d="M69.2328 23.7256C69.2328 26.3579 67.8034 28.0491 65.6463 28.0491C65.0998 28.0773 64.5564 27.9532 64.0782 27.6911C63.6 27.429 63.2063 27.0395 62.9422 26.5671H62.9014V30.7627H61.1374V19.4898H62.8449V20.8987H62.8773C63.1535 20.4286 63.5538 20.0411 64.0357 19.7774C64.5175 19.5137 65.0629 19.3837 65.6138 19.4012C67.795 19.4012 69.2328 21.1006 69.2328 23.7256ZM67.4196 23.7256C67.4196 22.0107 66.5204 20.8832 65.1485 20.8832C63.8006 20.8832 62.894 22.0344 62.894 23.7256C62.894 25.4324 63.8006 26.5754 65.1485 26.5754C66.5204 26.5754 67.4196 25.4561 67.4196 23.7256H67.4196Z" fill="white"/>
<path d="M75.4842 24.7231C75.615 25.8752 76.7505 26.6317 78.3023 26.6317C79.7892 26.6317 80.8589 25.8752 80.8589 24.8363C80.8589 23.9345 80.2137 23.3945 78.6861 23.0245L77.1584 22.6618C74.9939 22.1465 73.989 21.1487 73.989 19.5297C73.989 17.5251 75.7614 16.1482 78.2782 16.1482C80.769 16.1482 82.4765 17.5251 82.534 19.5297H80.7532C80.6466 18.3702 79.6742 17.6704 78.2531 17.6704C76.8321 17.6704 75.8596 18.3785 75.8596 19.4091C75.8596 20.2305 76.4807 20.7138 78.0001 21.0838L79.2988 21.3981C81.7173 21.9619 82.7222 22.9194 82.7222 24.6188C82.7222 26.7924 80.9655 28.1538 78.1716 28.1538C75.5574 28.1538 73.7925 26.8244 73.6784 24.723L75.4842 24.7231Z" fill="white"/>
<path d="M86.5294 17.4863V19.4909H88.1637V20.8678H86.5294V25.5376C86.5294 26.2631 86.8566 26.6011 87.575 26.6011C87.769 26.5978 87.9627 26.5844 88.1553 26.5609V27.9296C87.8323 27.9891 87.504 28.016 87.1755 28.01C85.4355 28.01 84.757 27.3658 84.757 25.7231V20.8678H83.5074V19.4909H84.757V17.4863H86.5294Z" fill="white"/>
<path d="M89.1099 23.7252C89.1099 21.06 90.7024 19.3853 93.1858 19.3853C95.6776 19.3853 97.2627 21.06 97.2627 23.7252C97.2627 26.3977 95.6859 28.0651 93.1858 28.0651C90.6866 28.0651 89.1099 26.3977 89.1099 23.7252ZM95.4653 23.7252C95.4653 21.8969 94.6152 20.8179 93.1858 20.8179C91.7564 20.8179 90.9073 21.9052 90.9073 23.7252C90.9073 25.5608 91.7564 26.6316 93.1858 26.6316C94.6152 26.6316 95.4652 25.5608 95.4652 23.7252H95.4653Z" fill="white"/>
<path d="M98.7172 19.49H100.4V20.9318H100.44C100.554 20.4815 100.822 20.0835 101.198 19.8048C101.575 19.5261 102.037 19.3837 102.508 19.4014C102.711 19.4007 102.914 19.4224 103.112 19.4663V21.0926C102.855 21.0153 102.588 20.9798 102.319 20.9875C102.063 20.9773 101.808 21.0218 101.571 21.1181C101.333 21.2143 101.12 21.36 100.946 21.5452C100.771 21.7303 100.639 21.9505 100.559 22.1907C100.479 22.4308 100.452 22.6852 100.481 22.9364V27.9607H98.7172L98.7172 19.49Z" fill="white"/>
<path d="M111.246 25.4721C111.008 27.0098 109.489 28.0651 107.545 28.0651C105.045 28.0651 103.493 26.4141 103.493 23.7654C103.493 21.1084 105.053 19.3853 107.471 19.3853C109.849 19.3853 111.344 20.9951 111.344 23.5635V24.1592H105.274V24.2643C105.246 24.576 105.285 24.8901 105.39 25.1856C105.495 25.4811 105.662 25.7512 105.88 25.9782C106.099 26.2051 106.364 26.3836 106.658 26.5017C106.952 26.6199 107.268 26.6751 107.586 26.6636C108.003 26.7021 108.421 26.6069 108.779 26.3922C109.136 26.1776 109.414 25.8549 109.57 25.4721L111.246 25.4721ZM105.282 22.944H109.579C109.595 22.6637 109.552 22.3832 109.452 22.1201C109.353 21.857 109.199 21.617 109.001 21.4151C108.803 21.2132 108.565 21.0539 108.302 20.947C108.039 20.8402 107.756 20.7881 107.471 20.7941C107.184 20.7924 106.899 20.8468 106.633 20.9542C106.367 21.0616 106.126 21.2197 105.922 21.4196C105.719 21.6195 105.557 21.8571 105.447 22.1187C105.338 22.3804 105.281 22.6609 105.282 22.944V22.944Z" fill="white"/>
<path d="M30.9259 18.4219C30.9361 17.641 31.1465 16.8753 31.5376 16.1961C31.9287 15.5169 32.4878 14.9462 33.1628 14.5372C32.734 13.9336 32.1683 13.4369 31.5106 13.0864C30.853 12.736 30.1215 12.5415 29.3742 12.5185C27.7803 12.3536 26.2349 13.4586 25.4227 13.4586C24.5947 13.4586 23.3441 12.5349 21.9974 12.5622C21.1263 12.5899 20.2773 12.8396 19.5332 13.2868C18.7892 13.7341 18.1753 14.3637 17.7515 15.1144C15.9157 18.2471 17.285 22.8513 19.0436 25.3836C19.9234 26.6236 20.9517 28.0087 22.2972 27.9596C23.6139 27.9058 24.1056 27.1321 25.6949 27.1321C27.2695 27.1321 27.7308 27.9596 29.1036 27.9284C30.5165 27.9057 31.4066 26.6828 32.2556 25.4311C32.8877 24.5476 33.3742 23.5711 33.6969 22.5377C32.8761 22.1956 32.1756 21.6228 31.6829 20.8909C31.1901 20.159 30.9268 19.3003 30.9259 18.4219Z" fill="white"/>
<path d="M28.3332 10.8525C29.1035 9.94102 29.483 8.76949 29.3911 7.58667C28.2142 7.7085 27.1271 8.2629 26.3464 9.1394C25.9646 9.56759 25.6723 10.0657 25.486 10.6054C25.2997 11.145 25.2232 11.7155 25.2607 12.2843C25.8494 12.2903 26.4317 12.1645 26.9639 11.9165C27.4961 11.6685 27.9643 11.3047 28.3332 10.8525Z" fill="white"/>
</svg>
